<?xml version="1.0" standalone="no"?>
<!DOCTYPE svg PUBLIC "-//W3C//DTD SVG 20010904//EN"
 "http://www.w3.org/TR/2001/REC-SVG-20010904/DTD/svg10.dtd">
<svg version="1.0" xmlns="http://www.w3.org/2000/svg"
 width="512.000000pt" height="512.000000pt" viewBox="0 0 512.000000 512.000000"
 preserveAspectRatio="xMidYMid meet">
<metadata>
Created by potrace 1.11, written by Peter Selinger 2001-2013
</metadata>
<g transform="translate(0.000000,512.000000) scale(0.100000,-0.100000)"
fill="#000000" stroke="none">
<path d="M4929 5036 c-2 -2 -29 -7 -59 -11 -30 -3 -80 -10 -110 -15 -30 -5
-73 -11 -95 -14 -67 -9 -120 -16 -140 -20 -19 -4 -76 -12 -154 -22 -19 -2 -46
-6 -60 -9 -37 -6 -219 -33 -266 -39 -22 -3 -89 -13 -150 -21 -60 -9 -119 -18
-130 -19 -11 -2 -38 -6 -60 -9 -22 -4 -60 -9 -85 -12 -25 -3 -56 -8 -70 -10
-14 -3 -43 -7 -65 -10 -22 -2 -51 -7 -65 -9 -14 -3 -45 -8 -70 -11 -25 -3 -54
-7 -65 -9 -11 -2 -60 -9 -110 -16 -49 -6 -101 -14 -115 -16 -14 -2 -59 -9
-100 -15 -41 -5 -86 -12 -100 -14 -14 -3 -90 -14 -170 -25 -80 -11 -156 -22
-170 -25 -14 -2 -45 -7 -70 -10 -25 -3 -56 -8 -70 -10 -29 -5 -296 -43 -355
-51 -22 -3 -47 -7 -55 -9 -8 -2 -40 -7 -70 -10 -30 -3 -62 -8 -70 -10 -8 -2
-37 -6 -65 -10 -27 -3 -75 -10 -105 -15 -30 -5 -80 -12 -110 -15 -30 -4 -57
-8 -60 -10 -3 -2 -34 -6 -70 -10 -36 -4 -67 -8 -70 -10 -3 -1 -32 -6 -65 -9
-33 -4 -67 -9 -75 -11 -8 -2 -37 -6 -65 -10 -27 -3 -61 -8 -75 -10 -33 -5
-235 -34 -285 -41 -22 -3 -47 -7 -55 -9 -8 -2 -37 -6 -65 -10 -27 -3 -61 -8
-75 -10 -14 -3 -47 -7 -74 -10 -26 -2 -56 -7 -65 -9 -9 -3 -36 -8 -61 -10 -25
-3 -59 -7 -76 -10 -17 -3 -47 -8 -67 -10 -128 -17 -157 -27 -187 -69 -16 -21
-24 -45 -24 -77 -1 -51 9 -68 221 -371 48 -69 229 -329 401 -576 344 -496 338
-490 430 -478 61 7 73 9 362 50 20 3 45 7 56 9 12 2 45 7 74 11 29 4 61 8 70
10 9 2 41 6 70 10 29 4 60 8 69 10 9 1 39 6 66 9 28 4 62 9 78 11 15 3 39 7
55 10 38 6 122 17 152 20 14 1 39 5 55 8 33 7 85 15 148 22 23 3 53 7 67 10
14 3 77 12 140 21 124 17 173 24 200 29 10 2 40 7 67 10 188 27 503 122 708
216 28 12 52 23 55 24 7 1 160 79 200 102 223 126 439 291 631 483 284 282
511 619 659 981 35 87 10 161 -63 188 -28 11 -70 15 -78 7z"/>
<path d="M2619 2684 c-40 -25 -24 4 -287 -534 -205 -421 -246 -505 -247 -510
-1 -3 -48 -99 -104 -215 -57 -115 -127 -259 -156 -320 -29 -60 -112 -231 -185
-380 -72 -148 -153 -313 -178 -365 -69 -141 -65 -222 11 -269 34 -21 39 -21
868 -21 960 0 873 -9 927 101 53 110 108 290 127 424 4 22 8 47 10 55 17 66
24 364 11 510 -42 486 -225 975 -501 1338 -91 119 -142 176 -174 192 -42 21
-84 20 -122 -6z"/>
</g>
</svg>
